<svg xmlns="http://www.w3.org/2000/svg" width="86" height="26" viewBox="0 0 86 26" fill="none">
  <path d="M23.1541 5.86258C19.7522 5.82977 16.9658 8.68458 16.9658 12.13V19.185C16.9658 19.4147 17.1602 19.6116 17.387 19.6116H20.0114C20.2382 19.6116 20.4326 19.4147 20.4326 19.185V12.13C20.4326 10.6534 21.5989 9.4393 23.0569 9.4393C24.5149 9.4393 25.7137 10.6206 25.7137 12.0972V19.2178C25.7137 19.4475 25.9081 19.6444 26.1349 19.6444H28.824C29.0508 19.6444 29.2452 19.4475 29.2452 19.2178V12.0972C29.2776 8.65177 26.5561 5.86258 23.1541 5.86258Z" fill="white"/>
  <path d="M8.31486 20.0707C4.42693 20.0707 1.28418 16.8878 1.28418 12.9829C1.28418 9.04525 4.42693 5.8623 8.31486 5.8623C12.2028 5.8623 15.3455 9.04525 15.3455 12.9829C15.3132 16.8878 12.1704 20.0707 8.31486 20.0707ZM11.814 12.9829C11.814 11.0141 10.2264 9.43902 8.31486 9.43902C6.3709 9.43902 4.81572 11.0469 4.81572 12.9829C4.81572 14.9517 6.4033 16.5268 8.31486 16.5268C10.2588 16.5268 11.814 14.9517 11.814 12.9829Z" fill="white"/>
  <path d="M53.2841 10.0621C53.4137 10.259 53.6729 10.3246 53.8673 10.1933L55.0337 9.50426L56.1676 8.84798C56.3944 8.71672 56.4592 8.4214 56.2972 8.1917C55.0985 6.61663 53.3813 5.8291 51.0809 5.8291C49.4933 5.8291 48.1974 6.19005 47.0958 6.97759C46.0266 7.73231 45.5082 8.78235 45.5082 10.0949C45.5082 11.3418 46.059 12.2934 47.1606 13.0153C47.5818 13.3107 48.1326 13.5732 48.7482 13.7701C49.1694 13.9013 49.7525 14.0654 50.4329 14.2295C52.2149 14.6232 53.0897 15.1482 53.0897 15.7061C53.0897 16.4936 52.4093 16.8546 51.0809 16.8546C49.7849 16.8546 48.8778 16.3952 48.3594 15.4436C48.2298 15.2139 47.9706 15.1482 47.7438 15.2795L46.545 15.9686L45.3462 16.7233C45.1194 16.8546 45.0546 17.1171 45.1842 17.3468C46.3182 19.1515 48.2946 20.0703 51.0485 20.0703C52.7333 20.0703 54.0941 19.7094 55.2281 18.9547C56.362 18.1999 56.9128 17.1171 56.9128 15.7389C56.9452 14.4592 56.3944 13.4091 55.2605 12.6872C54.4829 12.195 53.3813 11.7684 52.0205 11.5059C50.2385 11.1121 49.3637 10.5871 49.3637 10.0293C49.3637 9.30737 49.9145 8.91361 51.0485 8.91361C52.0205 8.94642 52.8305 9.34019 53.2841 10.0621Z" fill="white"/>
  <path d="M40.034 6.74808V13.8359C40.034 15.3125 38.8676 16.5266 37.4096 16.5266C35.9517 16.5266 34.7529 15.3453 34.7529 13.8687V6.74808C34.7529 6.51839 34.5585 6.3215 34.3317 6.3215H31.7073C31.4805 6.3215 31.2861 6.51839 31.2861 6.74808V13.8031C31.2861 17.2485 34.0725 20.1033 37.4744 20.0705C40.844 20.0377 43.5979 17.2813 43.5979 13.8359V6.74808C43.5979 6.51839 43.4035 6.3215 43.1767 6.3215H40.4876C40.2284 6.28869 40.034 6.51839 40.034 6.74808Z" fill="white"/>
  <path d="M67.1194 8.58546C67.4434 8.78235 67.8646 8.71672 68.1562 8.42139C69.355 7.10884 71.0722 6.28849 72.9837 6.28849C74.8953 6.28849 76.6125 7.10884 77.8113 8.42139C78.0705 8.71672 78.4916 8.78235 78.848 8.58546L81.764 6.87914C82.1852 6.61663 82.3148 6.02598 81.9908 5.63221C79.82 3.0071 76.5801 1.30078 72.9513 1.30078C69.3226 1.30078 66.0826 3.0071 63.9767 5.66503C63.6527 6.05879 63.7823 6.64944 64.2035 6.91195L67.1194 8.58546Z" fill="#0068FF"/>
  <path d="M79.2363 11.0122C79.4307 11.7013 79.5279 12.4232 79.5279 13.1779C79.4307 16.6562 76.6443 19.5438 73.21 19.6751C69.4517 19.8063 66.3737 16.7875 66.3737 13.0139C66.3737 12.3248 66.4709 11.6685 66.6653 11.045C66.7949 10.6841 66.6329 10.2575 66.3089 10.0934L63.393 8.38711C62.9718 8.1246 62.3886 8.32148 62.2266 8.78088C61.6758 10.1919 61.4166 11.7341 61.449 13.342C61.611 19.511 66.6005 24.5315 72.6916 24.6956C79.1715 24.8597 84.485 19.5438 84.485 13.0139C84.485 11.5372 84.1934 10.0934 83.7074 8.78088C83.513 8.32148 82.9622 8.1246 82.541 8.38711L79.6251 10.0934C79.3011 10.2247 79.1391 10.6513 79.2363 11.0122Z" fill="#0068FF"/>
</svg>
